PathFileType	4	(X/Y/Z)	Patient4_TMGait_0pt6_01_left_45.trc.trc
DataRate	CameraRate	NumFrames	NumMarkers	Units	OrigDataRate	OrigDataStartFrame	OrigNumFrames
77.348066298342	77.348066298342	4	33	mm	77.348066298342	1	       141
Frame#	Time	Sacral			L.Shoulder			Chest			R.Shoulder			Neck			R.ASIS			L.ASIS			R.Thigh.Superior			R.Thigh.Lateral			R.Thigh.Inferior			R.Patella			L.Thigh.Superior			L.Thigh.Lateral			L.Thigh.Inferior			L.Patella			L.Shank.Superior			L.Shank.Lateral			L.Shank.Inferior			R.Shank.Superior			R.Shank.Lateral			R.Shank.Inferior			R.Heel			R.Midfoot.Superior			R.Midfoot.Lateral			R.Toe			L.Heel			L.Midfoot.Lateral			L.Midfoot.Superior			L.Toe			L.Elbow			L.Wrist			R.Elbow			R.Wrist			
		X1	Y1	Z1	X2	Y2	Z2	X3	Y3	Z3	X4	Y4	Z4	X5	Y5	Z5	X6	Y6	Z6	X7	Y7	Z7	X8	Y8	Z8	X9	Y9	Z9	X10	Y10	Z10	X11	Y11	Z11	X12	Y12	Z12	X13	Y13	Z13	X14	Y14	Z14	X15	Y15	Z15	X16	Y16	Z16	X17	Y17	Z17	X18	Y18	Z18	X19	Y19	Z19	X20	Y20	Z20	X21	Y21	Z21	X22	Y22	Z22	X23	Y23	Z23	X24	Y24	Z24	X25	Y25	Z25	X26	Y26	Z26	X27	Y27	Z27	X28	Y28	Z28	X29	Y29	Z29	X30	Y30	Z30	X31	Y31	Z31	X32	Y32	Z32	X33	Y33	Z33	

1	54.690000000000	772.909568816126	1004.003005384398	495.150921857283	919.317385155781	1439.586517708749	310.289362549865	1036.078502864786	1371.191283944412	461.848945103949	963.985435010409	1437.937443417467	642.097042616111	912.154018002235	1496.243996645561	465.215460127787	1005.372416641290	947.233055060526	602.638022429338	979.787020285457	965.211791975467	327.233049366578	1042.394099854931	741.837600882455	573.221622953999	957.250323388716	633.133363672595	629.128720202613	1033.587279475176	580.942894317059	549.286201365556	1030.083358821351	492.476567129309	552.523413931169	1064.086389524800	778.955017851717	354.644698470445	1014.530921111514	652.202051999564	279.005410773260	1122.276678651336	590.118627331623	333.477186930926	1134.703948399550	499.781148027334	326.281086191383	1067.789394702769	432.175156786953	323.200074860542	923.746675765063	388.452042682247	282.394163085109	915.595724898168	259.322819869991	338.038572487376	1001.739254706014	403.703228213980	556.915705143502	927.698281998942	299.250165217749	613.302173739536	970.860718168354	205.939393884212	548.751434399083	836.019431434475	41.779055396385	512.699407185272	1006.775540353421	97.064341665420	551.080923889979	918.217559773975	36.395327638200	588.604543467754	1126.440229850894	45.551086144198	579.896630511692	726.399523119890	188.332292204948	386.034172991772	781.171897558554	149.853294583171	300.023844428887	887.336236006489	160.147807884016	315.982796574615	967.170469337314	52.521358136486	276.849484215888	926.756900923078	1083.757590014497	195.985855042091	1157.997961678659	965.339078797771	203.513991138609	923.161143371340	1092.624499341672	765.362323244163	1011.108785108909	844.750800016583	763.403710845804	
2	54.702928571429	771.498084856947	1004.699940743596	496.904934995109	917.805369284204	1439.582165926541	311.021809489716	1035.617391604642	1371.179208148483	461.761736882841	965.095235770384	1438.373646808162	642.515727837722	911.932085461390	1496.504272710715	465.806236430569	1004.273088019066	946.910057988918	602.549745358993	977.023942544511	966.396164369568	328.000258283552	1038.397808251619	740.990866121933	571.593736662485	953.055150455886	633.149048114191	629.164389165474	1027.287811399880	580.202126659578	548.360430502085	1022.937160982653	492.119080333455	551.886672008379	1063.564987455146	782.265388725555	355.803385705803	1016.833693966825	655.117498492460	279.406930636719	1124.499458737996	594.334731179810	334.952294166490	1138.957683324589	505.260695153611	327.535649218018	1075.880314102303	435.820614120315	323.486525886911	935.845070974363	383.780191656741	281.605992841581	935.866840257995	254.570940180607	336.524791051557	994.426446581487	403.440351271413	556.498703232158	920.488985658193	299.159700653394	613.273254864983	963.088210348116	205.761657721617	548.480585017572	827.762346889769	41.726572366975	512.684164580604	998.459907065260	96.968241382620	550.981874438502	909.977717679200	36.379121009163	588.591136897373	1118.191013792248	45.466076024742	579.906741632484	752.747712693379	171.818727556388	383.175784599107	809.788468307735	137.471728281951	297.328163806895	914.359873732439	154.431555809781	313.829406245095	1000.577059796124	52.921573047365	274.812194483488	919.897703166624	1082.725655009477	199.099178140063	1141.155328759822	948.727993898631	205.091266419468	933.576155009269	1092.384363968977	766.619634936983	1038.246325996351	853.508364225057	760.872920145252	
3	54.715857142857	770.105647621760	1005.373061173370	498.605639065427	916.336008268051	1439.555250005240	311.734690549689	1035.171794604342	1371.132867230051	461.665371009603	966.201645390999	1438.762744066854	642.919236409663	911.726708824319	1496.731016272628	466.388345840838	1003.180172482026	946.564184905176	602.450547608199	974.297381467109	967.489591255383	328.716715223536	1034.461707728776	740.142981407499	570.035755738981	948.887441907356	633.149538389203	629.212078125781	1021.075605966397	579.457369881838	547.482643307004	1015.874904558804	491.753335177055	551.281517675188	1062.951180017962	785.402874453285	356.944854609500	1018.900968029765	657.876063588083	279.792906213156	1126.415577130855	598.312544532460	336.449076390191	1142.892844002919	510.569382165858	328.765566979027	1083.689357372675	439.383008268691	323.740410593341	947.856218337933	379.030060431355	280.790751446547	956.137377632559	249.897673722403	334.997781334553	987.196961086401	403.168412812823	556.101270553308	913.349013988744	299.063133137229	613.252889804316	955.376831482170	205.577033889067	548.221480660103	819.568174220903	41.679528617023	512.667490959920	990.211723577992	96.872994290826	550.886949817165	901.800045926119	36.363951015220	588.579854629806	1110.003665260511	45.372888494243	579.917078582017	779.382758105700	155.401455616046	380.326389004511	838.617149981828	125.278728505887	294.635781910230	941.458239249245	148.909058089452	311.688202670156	1033.978709043933	53.671249273411	272.777065552547	913.212628500838	1081.704244121757	202.154181560976	1124.160279190295	932.279782436030	206.659706836267	943.904459074688	1092.139481866543	767.796505051557	1065.171081065923	862.582063099138	758.218406366169	
4	54.728785714286	768.757019126490	1005.995066849882	500.198051554186	914.962267987135	1439.484578140542	312.401105348849	1034.761294576458	1371.019760051588	461.549326261471	967.296943020589	1439.059725219564	643.286707839144	911.555785045956	1496.892501525227	466.944420832152	1002.112272785635	946.180457393932	602.327158778982	971.649206048240	968.404432677947	329.332378451953	1030.643556862363	739.289561859169	568.613019640477	944.765968266602	633.122636778329	629.279030300400	1015.019440885729	578.704540332260	546.695499093661	1008.963583116548	491.371163876907	550.735802571859	1062.145510261200	788.183922761982	358.030351439208	1020.511177885757	660.323632103806	280.125626509820	1127.762282988827	601.826820505426	337.942569113626	1146.217817569114	515.537113849032	329.932196504027	1090.947823128125	442.784576045033	323.928767693769	959.672756403553	374.184917147241	279.932653391050	976.321841112817	245.444089917913	333.460677761045	980.111958955883	402.884116372303	555.742017052898	906.324068287785	298.959255686848	613.251172328014	947.767221919870	205.383527249768	547.986614455295	811.480027439612	41.642966946099	512.650375268473	982.077795957660	96.780038448799	550.800510194311	893.726319723879	36.350619004428	588.572840163658	1101.921156302571	45.264220172496	579.928007641054	806.443326873876	139.329683433880	377.523236083707	867.731747923603	113.553565867946	291.990018586593	968.585995358401	143.826776962714	309.595121898960	1067.220855186668	55.114236318269	270.805967245285	906.861892499930	1080.707899283191	205.075568423417	1106.868408575559	916.259557770158	208.199695687450	954.094144108893	1091.899912710666	768.783691749969	1091.612548364278	872.323390180895	755.316115552088	
